<svg width="100" height="100" viewBox="0 0 100 100" fill="none" xmlns="http://www.w3.org/2000/svg">
<g clip-path="url(#clip0_1_2)">
<rect width="100" height="100" fill="white"/>
<rect x="7.5" y="6.5" width="30" height="7" fill="#2602FF" stroke="#2602FF"/>
<g filter="url(#filter0_d_1_2)">
<path d="M79.0002 48.057L89.4506 41.9095L89.5492 54.0335L79.0002 48.057Z" fill="url(#paint0_radial_1_2)" fill-opacity="0.6" shape-rendering="crispEdges"/>
<path d="M89.0422 53.1716L80.0002 48.0488L88.9576 42.7796L89.0422 53.1716Z" stroke="#37C620" shape-rendering="crispEdges"/>
</g>
<g filter="url(#filter1_d_1_2)">
<ellipse cx="22.5" cy="86.5" rx="7.5" ry="6.5" fill="#F5DD00"/>
<path d="M29.5 86.5C29.5 89.7489 26.4356 92.5 22.5 92.5C18.5644 92.5 15.5 89.7489 15.5 86.5C15.5 83.2511 18.5644 80.5 22.5 80.5C26.4356 80.5 29.5 83.2511 29.5 86.5Z" stroke="#F5DD00"/>
</g>
<rect x="81.5" y="6.5" width="9" height="9" fill="#F88600" stroke="url(#paint1_linear_1_2)"/>
<path d="M22.9998 43.7869L17.5426 52.1523L11.9584 43.8712L22.9998 43.7869Z" fill="#FF0000" stroke="#FF0000"/>
<path d="M26.6605 32V23.2727H32.6179V24.9858H28.7699V26.7756H32.2386V28.4929H28.7699V32H26.6605ZM35.7638 23.2727V32H33.68V23.2727H35.7638ZM40.1456 32.1236C39.4581 32.1236 38.8672 31.983 38.3729 31.7017C37.8814 31.4176 37.5021 31.0227 37.2351 30.517C36.9709 30.0085 36.8388 29.419 36.8388 28.7486C36.8388 28.0753 36.9709 27.4858 37.2351 26.9801C37.5021 26.4716 37.8814 26.0767 38.3729 25.7955C38.8672 25.5114 39.4581 25.3693 40.1456 25.3693C40.8331 25.3693 41.4226 25.5114 41.9141 25.7955C42.4084 26.0767 42.7876 26.4716 43.0518 26.9801C43.3189 27.4858 43.4524 28.0753 43.4524 28.7486C43.4524 29.419 43.3189 30.0085 43.0518 30.517C42.7876 31.0227 42.4084 31.4176 41.9141 31.7017C41.4226 31.983 40.8331 32.1236 40.1456 32.1236ZM40.1584 30.5511C40.4084 30.5511 40.62 30.4744 40.7933 30.321C40.9666 30.1676 41.0987 29.9545 41.1896 29.6818C41.2834 29.4091 41.3303 29.0937 41.3303 28.7358C41.3303 28.3722 41.2834 28.054 41.1896 27.7812C41.0987 27.5085 40.9666 27.2955 40.7933 27.142C40.62 26.9886 40.4084 26.9119 40.1584 26.9119C39.8999 26.9119 39.6811 26.9886 39.5021 27.142C39.326 27.2955 39.1911 27.5085 39.0973 27.7812C39.0064 28.054 38.9609 28.3722 38.9609 28.7358C38.9609 29.0937 39.0064 29.4091 39.0973 29.6818C39.1911 29.9545 39.326 30.1676 39.5021 30.321C39.6811 30.4744 39.8999 30.5511 40.1584 30.5511ZM44.5199 32V25.4545H46.544V26.6477H46.6122C46.7315 26.2159 46.9261 25.8949 47.196 25.6847C47.4659 25.4716 47.7798 25.3651 48.1378 25.3651C48.2344 25.3651 48.3338 25.3722 48.4361 25.3864C48.5384 25.3977 48.6335 25.4162 48.7216 25.4418V27.2528C48.6222 27.2187 48.4915 27.1918 48.3295 27.1719C48.1705 27.152 48.0284 27.142 47.9034 27.142C47.6563 27.142 47.4332 27.1974 47.2344 27.3082C47.0384 27.4162 46.8835 27.5682 46.7699 27.7642C46.6591 27.9574 46.6037 28.1847 46.6037 28.446V32H44.5199ZM52.2905 32.1236C51.6058 32.1236 51.0149 31.9886 50.5178 31.7188C50.0234 31.446 49.6428 31.0582 49.3757 30.5554C49.1115 30.0497 48.9794 29.4489 48.9794 28.7528C48.9794 28.0767 49.1129 27.4858 49.38 26.9801C49.647 26.4716 50.0234 26.0767 50.5092 25.7955C50.995 25.5114 51.5675 25.3693 52.2266 25.3693C52.6925 25.3693 53.1186 25.4418 53.505 25.5866C53.8913 25.7315 54.2251 25.946 54.5064 26.2301C54.7876 26.5142 55.0064 26.8651 55.1626 27.2827C55.3189 27.6974 55.397 28.1733 55.397 28.7102V29.2301H49.7081V28.0199H53.4581C53.4553 27.7983 53.4027 27.6009 53.3004 27.4276C53.1982 27.2543 53.0575 27.1193 52.8786 27.0227C52.7024 26.9233 52.4993 26.8736 52.2692 26.8736C52.0362 26.8736 51.8274 26.9261 51.6428 27.0312C51.4581 27.1335 51.3118 27.2741 51.2038 27.4531C51.0959 27.6293 51.0391 27.8295 51.0334 28.054V29.2855C51.0334 29.5526 51.0859 29.7869 51.1911 29.9886C51.2962 30.1875 51.4453 30.3423 51.6385 30.4531C51.8317 30.5639 52.0618 30.6193 52.3288 30.6193C52.5135 30.6193 52.6811 30.5937 52.8317 30.5426C52.9822 30.4915 53.1115 30.4162 53.2195 30.3168C53.3274 30.2173 53.4084 30.0952 53.4624 29.9503L55.3757 30.0057C55.2962 30.4347 55.1214 30.8082 54.8516 31.1264C54.5845 31.4418 54.2337 31.6875 53.799 31.8636C53.3643 32.0369 52.8615 32.1236 52.2905 32.1236ZM58.5451 28.267V32H56.4613V25.4545H58.4428V26.6562H58.5153C58.6602 26.2557 58.9073 25.9418 59.2567 25.7145C59.6062 25.4844 60.0224 25.3693 60.5053 25.3693C60.9656 25.3693 61.3647 25.473 61.7028 25.6804C62.0437 25.8849 62.3079 26.1719 62.4954 26.5412C62.6857 26.9077 62.7795 27.3366 62.7766 27.8281V32H60.6928V28.2372C60.6957 27.8736 60.6033 27.5895 60.4158 27.3849C60.2312 27.1804 59.9741 27.0781 59.6445 27.0781C59.4258 27.0781 59.2326 27.1264 59.065 27.223C58.9002 27.3168 58.7724 27.4517 58.6815 27.6278C58.5934 27.804 58.5479 28.017 58.5451 28.267ZM67.7614 25.4545V26.9886H63.6321V25.4545H67.7614ZM64.4972 23.8864H66.581V29.9418C66.581 30.0696 66.6009 30.1733 66.6406 30.2528C66.6832 30.3295 66.7443 30.3849 66.8239 30.419C66.9034 30.4503 66.9986 30.4659 67.1094 30.4659C67.1889 30.4659 67.2727 30.4588 67.3608 30.4446C67.4517 30.4276 67.5199 30.4134 67.5653 30.402L67.8807 31.9062C67.7813 31.9347 67.6406 31.9702 67.4588 32.0128C67.2798 32.0554 67.0653 32.0824 66.8153 32.0938C66.3267 32.1165 65.9077 32.0597 65.5582 31.9233C65.2116 31.7841 64.946 31.5682 64.7614 31.2756C64.5795 30.983 64.4915 30.6151 64.4972 30.1719V23.8864ZM68.8246 32V25.4545H70.9084V32H68.8246ZM69.8686 24.6918C69.576 24.6918 69.3246 24.5952 69.1143 24.402C68.9041 24.206 68.799 23.9702 68.799 23.6946C68.799 23.4219 68.9041 23.1889 69.1143 22.9957C69.3246 22.7997 69.576 22.7017 69.8686 22.7017C70.1641 22.7017 70.4155 22.7997 70.6229 22.9957C70.8331 23.1889 70.9382 23.4219 70.9382 23.6946C70.9382 23.9702 70.8331 24.206 70.6229 24.402C70.4155 24.5952 70.1641 24.6918 69.8686 24.6918ZM74.3185 28.267V32H72.2347V25.4545H74.2163V26.6562H74.2887C74.4336 26.2557 74.6808 25.9418 75.0302 25.7145C75.3796 25.4844 75.7958 25.3693 76.2788 25.3693C76.739 25.3693 77.1381 25.473 77.4762 25.6804C77.8171 25.8849 78.0813 26.1719 78.2688 26.5412C78.4592 26.9077 78.5529 27.3366 78.5501 27.8281V32H76.4663V28.2372C76.4691 27.8736 76.3768 27.5895 76.1893 27.3849C76.0046 27.1804 75.7475 27.0781 75.418 27.0781C75.1992 27.0781 75.006 27.1264 74.8384 27.223C74.6737 27.3168 74.5458 27.4517 74.4549 27.6278C74.3668 27.804 74.3214 28.017 74.3185 28.267ZM34.4332 41H33.6406C33.6321 40.7017 33.5724 40.4261 33.4616 40.1733C33.3509 39.9176 33.196 39.6946 32.9972 39.5043C32.7983 39.3139 32.5611 39.1662 32.2855 39.0611C32.0128 38.956 31.7074 38.9034 31.3693 38.9034C30.8125 38.9034 30.2798 39.0497 29.7713 39.3423C29.2628 39.6321 28.8253 40.0582 28.4588 40.6207C28.0923 41.1832 27.8423 41.8707 27.7088 42.6832C27.5753 43.4844 27.5966 44.1591 27.7727 44.7074C27.9489 45.2528 28.2372 45.6662 28.6378 45.9474C29.0412 46.2287 29.5142 46.3693 30.0568 46.3693C30.4034 46.3693 30.7358 46.3168 31.054 46.2116C31.3722 46.1065 31.6648 45.9602 31.9318 45.7727C32.1989 45.5824 32.4332 45.3594 32.6349 45.1037C32.8366 44.848 32.9929 44.571 33.1037 44.2727H33.9048C33.7656 44.6733 33.571 45.0469 33.321 45.3935C33.071 45.7372 32.7756 46.0384 32.4347 46.2969C32.0966 46.5554 31.723 46.7571 31.3139 46.902C30.9077 47.0469 30.4759 47.1193 30.0185 47.1193C29.2741 47.1193 28.6449 46.9332 28.1307 46.5611C27.6193 46.1889 27.2557 45.6648 27.0398 44.9886C26.8267 44.3097 26.7969 43.5099 26.9503 42.5895C27.1009 41.6861 27.3892 40.902 27.8153 40.2372C28.2443 39.5724 28.7699 39.0597 29.392 38.6989C30.0142 38.3352 30.6903 38.1534 31.4205 38.1534C31.8864 38.1534 32.304 38.2259 32.6733 38.3707C33.0426 38.5128 33.3565 38.7145 33.6151 38.9759C33.8764 39.2344 34.0767 39.5355 34.2159 39.8793C34.3551 40.223 34.4276 40.5966 34.4332 41ZM37.7369 47.1364C37.163 47.1364 36.68 46.9915 36.288 46.7017C35.896 46.4091 35.619 46.0043 35.457 45.4872C35.2951 44.9702 35.2681 44.3736 35.3761 43.6974C35.484 43.0384 35.6985 42.4588 36.0195 41.9588C36.3434 41.456 36.7411 41.0653 37.2127 40.7869C37.6843 40.5057 38.1971 40.3651 38.7511 40.3651C39.3278 40.3651 39.8107 40.5114 40.1999 40.804C40.592 41.0966 40.869 41.5014 41.0309 42.0185C41.1957 42.5355 41.2241 43.1335 41.1161 43.8125C41.0082 44.4688 40.7923 45.0469 40.4684 45.5469C40.1445 46.044 39.7468 46.4332 39.2752 46.7145C38.8065 46.9957 38.2937 47.1364 37.7369 47.1364ZM37.7454 46.4418C38.2113 46.4418 38.6261 46.3182 38.9897 46.071C39.3562 45.821 39.6587 45.4886 39.8974 45.0739C40.136 44.6562 40.2965 44.1974 40.3789 43.6974C40.4556 43.2202 40.4471 42.7812 40.3533 42.3807C40.2596 41.9801 40.0792 41.6591 39.8121 41.4176C39.5451 41.1761 39.19 41.0554 38.7468 41.0554C38.2837 41.0554 37.869 41.1818 37.5025 41.4347C37.136 41.6847 36.8335 42.0199 36.5948 42.4403C36.3562 42.858 36.1971 43.3153 36.1175 43.8125C36.038 44.2926 36.0437 44.7315 36.1346 45.1293C36.2283 45.527 36.4087 45.8452 36.6758 46.0838C36.9457 46.3224 37.3022 46.4418 37.7454 46.4418ZM42.2528 47L43.3438 40.4545H44.081L43.9105 41.4602H43.9659C44.1477 41.1307 44.419 40.8651 44.7798 40.6634C45.1435 40.4588 45.5313 40.3565 45.9432 40.3565C46.0057 40.3565 46.0753 40.358 46.152 40.3608C46.2287 40.3608 46.2926 40.3636 46.3438 40.3693L46.2116 41.1406C46.1776 41.1349 46.1179 41.1264 46.0327 41.1151C45.9503 41.1037 45.858 41.098 45.7557 41.098C45.4148 41.098 45.0994 41.1705 44.8097 41.3153C44.5227 41.4574 44.2813 41.6548 44.0852 41.9077C43.892 42.1605 43.767 42.4489 43.7102 42.7727L43.0114 47H42.2528ZM46.6996 47L48.1484 38.2727H48.9112L48.3487 41.7031H48.4169C48.5334 41.5071 48.6882 41.3054 48.8814 41.098C49.0774 40.8906 49.3189 40.7173 49.6058 40.5781C49.8928 40.4361 50.2365 40.3651 50.6371 40.3651C51.174 40.3651 51.6214 40.5071 51.9794 40.7912C52.3402 41.0724 52.5916 41.4673 52.7337 41.9759C52.8757 42.4815 52.8913 43.071 52.7805 43.7443C52.6669 44.4205 52.4553 45.0128 52.1456 45.5213C51.8359 46.0298 51.4553 46.4261 51.0036 46.7102C50.5518 46.9943 50.0589 47.1364 49.5249 47.1364C49.1271 47.1364 48.8061 47.0653 48.5618 46.9233C48.3203 46.7812 48.1357 46.6065 48.0078 46.3991C47.8828 46.1889 47.7919 45.9844 47.7351 45.7855H47.6413L47.4368 47H46.6996ZM47.995 43.7315C47.9098 44.2599 47.9098 44.7287 47.995 45.1378C48.0831 45.544 48.255 45.8636 48.5107 46.0966C48.7692 46.3267 49.1101 46.4418 49.5334 46.4418C49.968 46.4418 50.3558 46.3224 50.6967 46.0838C51.0405 45.8423 51.3246 45.517 51.549 45.108C51.7763 44.6989 51.9325 44.2401 52.0178 43.7315C52.1001 43.2287 52.0987 42.7756 52.0135 42.3722C51.9283 41.9687 51.7564 41.6491 51.4979 41.4134C51.2393 41.1747 50.8913 41.0554 50.4538 41.0554C50.0277 41.0554 49.6442 41.1705 49.3033 41.4006C48.9652 41.6278 48.6839 41.9432 48.4595 42.3466C48.2351 42.7472 48.0803 43.2088 47.995 43.7315ZM53.9098 47L55.0007 40.4545H55.7635L54.6726 47H53.9098ZM55.657 39.3168C55.4979 39.3168 55.3629 39.2628 55.2521 39.1548C55.1442 39.0469 55.0916 38.9162 55.0945 38.7628C55.1001 38.6179 55.1584 38.4929 55.2692 38.3878C55.3828 38.2798 55.5163 38.2259 55.6697 38.2259C55.8288 38.2259 55.9638 38.2812 56.0746 38.392C56.1854 38.5 56.2379 38.6307 56.2322 38.7841C56.2294 38.929 56.1712 39.054 56.0575 39.1591C55.9439 39.2642 55.8104 39.3168 55.657 39.3168ZM58.4897 47.1491C58.0948 47.1491 57.7468 47.0724 57.4457 46.919C57.1445 46.7628 56.9201 46.5384 56.7724 46.2457C56.6275 45.9503 56.5877 45.5923 56.6531 45.1719C56.7099 44.848 56.8178 44.5753 56.9769 44.3537C57.1388 44.1321 57.3434 43.9503 57.5906 43.8082C57.8377 43.6634 58.1218 43.5497 58.4428 43.4673C58.7638 43.3849 59.1133 43.3224 59.4911 43.2798C59.8604 43.2344 60.1758 43.1946 60.4371 43.1605C60.6985 43.1264 60.9016 43.0724 61.0465 42.9986C61.1914 42.9247 61.2781 42.8054 61.3065 42.6406L61.332 42.4872C61.4059 42.0412 61.3377 41.6903 61.1275 41.4347C60.9173 41.1761 60.565 41.0469 60.0707 41.0469C59.5991 41.0469 59.19 41.152 58.8434 41.3622C58.4996 41.5696 58.244 41.8125 58.0763 42.0909L57.4031 41.831C57.6076 41.473 57.859 41.1875 58.1573 40.9744C58.4556 40.7585 58.7752 40.6037 59.1161 40.5099C59.457 40.4134 59.7937 40.3651 60.1261 40.3651C60.3761 40.3651 60.6303 40.3977 60.8888 40.4631C61.1474 40.5284 61.3789 40.642 61.5835 40.804C61.7908 40.9631 61.9428 41.1861 62.0394 41.473C62.1388 41.7571 62.1531 42.1179 62.082 42.5554L61.3406 47H60.582L60.7567 45.9645H60.7099C60.5906 46.1577 60.4258 46.3452 60.2156 46.527C60.0082 46.7088 59.7596 46.858 59.4698 46.9744C59.18 47.0909 58.8533 47.1491 58.4897 47.1491ZM58.6815 46.4545C59.0849 46.4545 59.4499 46.3651 59.7766 46.1861C60.1062 46.0071 60.3761 45.7699 60.5863 45.4744C60.7994 45.1761 60.9357 44.848 60.9954 44.4901L61.1531 43.544C61.0906 43.598 60.9883 43.6463 60.8462 43.6889C60.707 43.7315 60.5494 43.7699 60.3732 43.804C60.1999 43.8352 60.0252 43.8622 59.8491 43.8849C59.6758 43.9077 59.5224 43.9276 59.3888 43.9446C59.011 43.9901 58.6815 44.0611 58.4002 44.1577C58.1218 44.2543 57.8988 44.3878 57.7312 44.5582C57.5636 44.7259 57.4585 44.9418 57.4158 45.206C57.3505 45.6037 57.4371 45.9119 57.6758 46.1307C57.9173 46.3466 58.2525 46.4545 58.6815 46.4545ZM67.0273 40.4545L66.9208 41.1151H63.793L63.9038 40.4545H67.0273ZM65.1353 38.8864H65.8981L64.8327 45.2912C64.7873 45.5639 64.7987 45.7784 64.8668 45.9347C64.935 46.0881 65.0401 46.1974 65.1822 46.2628C65.3242 46.3253 65.4805 46.3565 65.6509 46.3565C65.7504 46.3565 65.8356 46.3509 65.9066 46.3395C65.9805 46.3253 66.0458 46.3111 66.1026 46.2969L66.158 46.983C66.0756 47.0114 65.9776 47.0369 65.864 47.0597C65.7504 47.0852 65.614 47.098 65.4549 47.098C65.1765 47.098 64.9194 47.0369 64.6836 46.9148C64.4478 46.7926 64.2688 46.6108 64.1467 46.3693C64.0245 46.1278 63.9918 45.8281 64.0487 45.4702L65.1353 38.8864Z" fill="black"/>
<path d="M27.3665 66.5H26.9261C26.9001 66.3733 26.8545 66.2621 26.7894 66.1662C26.7255 66.0703 26.6474 65.9898 26.555 65.9247C26.4639 65.8584 26.3627 65.8087 26.2514 65.7756C26.1402 65.7424 26.0241 65.7259 25.9034 65.7259C25.6832 65.7259 25.4838 65.7815 25.305 65.8928C25.1275 66.004 24.986 66.168 24.8807 66.3846C24.7765 66.6012 24.7244 66.867 24.7244 67.1818C24.7244 67.4967 24.7765 67.7624 24.8807 67.979C24.986 68.1957 25.1275 68.3596 25.305 68.4709C25.4838 68.5821 25.6832 68.6378 25.9034 68.6378C26.0241 68.6378 26.1402 68.6212 26.2514 68.5881C26.3627 68.5549 26.4639 68.5058 26.555 68.4407C26.6474 68.3744 26.7255 68.2933 26.7894 68.1974C26.8545 68.1004 26.9001 67.9891 26.9261 67.8636H27.3665C27.3333 68.0495 27.273 68.2158 27.1854 68.3626C27.0978 68.5094 26.9889 68.6342 26.8587 68.7372C26.7285 68.839 26.5823 68.9165 26.4201 68.9698C26.2591 69.0231 26.0869 69.0497 25.9034 69.0497C25.5933 69.0497 25.3175 68.974 25.076 68.8224C24.8345 68.6709 24.6445 68.4555 24.506 68.1761C24.3675 67.8968 24.2983 67.5653 24.2983 67.1818C24.2983 66.7983 24.3675 66.4669 24.506 66.1875C24.6445 65.9081 24.8345 65.6927 25.076 65.5412C25.3175 65.3897 25.5933 65.3139 25.9034 65.3139C26.0869 65.3139 26.2591 65.3406 26.4201 65.3938C26.5823 65.4471 26.7285 65.5252 26.8587 65.6282C26.9889 65.73 27.0978 65.8543 27.1854 66.0011C27.273 66.1467 27.3333 66.313 27.3665 66.5ZM29.1292 69.0568C28.883 69.0568 28.6669 68.9982 28.4811 68.881C28.2964 68.7638 28.152 68.5999 28.0479 68.3892C27.9449 68.1785 27.8934 67.9323 27.8934 67.6506C27.8934 67.3665 27.9449 67.1185 28.0479 66.9066C28.152 66.6947 28.2964 66.5302 28.4811 66.413C28.6669 66.2958 28.883 66.2372 29.1292 66.2372C29.3754 66.2372 29.5908 66.2958 29.7755 66.413C29.9613 66.5302 30.1057 66.6947 30.2087 66.9066C30.3129 67.1185 30.365 67.3665 30.365 67.6506C30.365 67.9323 30.3129 68.1785 30.2087 68.3892C30.1057 68.5999 29.9613 68.7638 29.7755 68.881C29.5908 68.9982 29.3754 69.0568 29.1292 69.0568ZM29.1292 68.6804C29.3162 68.6804 29.4701 68.6325 29.5908 68.5366C29.7116 68.4407 29.8009 68.3146 29.8589 68.1584C29.9169 68.0021 29.9459 67.8329 29.9459 67.6506C29.9459 67.4683 29.9169 67.2984 29.8589 67.141C29.8009 66.9835 29.7116 66.8563 29.5908 66.7592C29.4701 66.6622 29.3162 66.6136 29.1292 66.6136C28.9421 66.6136 28.7883 66.6622 28.6675 66.7592C28.5468 66.8563 28.4574 66.9835 28.3994 67.141C28.3414 67.2984 28.3124 67.4683 28.3124 67.6506C28.3124 67.8329 28.3414 68.0021 28.3994 68.1584C28.4574 68.3146 28.5468 68.4407 28.6675 68.5366C28.7883 68.6325 28.9421 68.6804 29.1292 68.6804ZM31.4237 67.3594V69H31.0046V66.2727H31.4094V66.6989H31.445C31.5089 66.5604 31.6059 66.4491 31.7362 66.3651C31.8664 66.2798 32.0344 66.2372 32.2404 66.2372C32.4251 66.2372 32.5866 66.2751 32.7251 66.3509C32.8636 66.4254 32.9714 66.5391 33.0483 66.6918C33.1252 66.8433 33.1637 67.035 33.1637 67.267V69H32.7447V67.2955C32.7447 67.0812 32.689 66.9143 32.5778 66.7947C32.4665 66.674 32.3138 66.6136 32.1197 66.6136C31.9859 66.6136 31.8664 66.6426 31.761 66.7006C31.6568 66.7586 31.5746 66.8433 31.5142 66.9545C31.4538 67.0658 31.4237 67.2008 31.4237 67.3594ZM35.0374 69.0568C34.7817 69.0568 34.5615 68.9964 34.3769 68.8757C34.1922 68.755 34.0502 68.5887 33.9507 68.3768C33.8513 68.1649 33.8016 67.9228 33.8016 67.6506C33.8016 67.3736 33.8525 67.1291 33.9543 66.9173C34.0573 66.7042 34.2005 66.5379 34.384 66.4183C34.5686 66.2976 34.7841 66.2372 35.0303 66.2372C35.222 66.2372 35.3949 66.2727 35.5487 66.3438C35.7026 66.4148 35.8287 66.5142 35.9269 66.642C36.0252 66.7699 36.0861 66.919 36.1098 67.0895H35.6908C35.6588 66.9652 35.5878 66.8551 35.4777 66.7592C35.3688 66.6622 35.222 66.6136 35.0374 66.6136C34.874 66.6136 34.7308 66.6562 34.6077 66.7415C34.4858 66.8255 34.3905 66.9445 34.3218 67.0984C34.2544 67.2511 34.2206 67.4304 34.2206 67.6364C34.2206 67.8471 34.2538 68.0305 34.32 68.1868C34.3875 68.343 34.4822 68.4644 34.6041 68.5508C34.7272 68.6372 34.8717 68.6804 35.0374 68.6804C35.1463 68.6804 35.2451 68.6615 35.3339 68.6236C35.4227 68.5857 35.4978 68.5312 35.5594 68.4602C35.6209 68.3892 35.6647 68.304 35.6908 68.2045H36.1098C36.0861 68.3655 36.0276 68.5105 35.934 68.6396C35.8417 68.7674 35.7192 68.8692 35.5665 68.945C35.415 69.0195 35.2386 69.0568 35.0374 69.0568ZM37.8659 69.0568C37.6031 69.0568 37.3764 68.9988 37.1858 68.8828C36.9964 68.7656 36.8502 68.6023 36.7472 68.3928C36.6454 68.1821 36.5945 67.937 36.5945 67.6577C36.5945 67.3783 36.6454 67.1321 36.7472 66.919C36.8502 66.7048 36.9935 66.5379 37.1769 66.4183C37.3616 66.2976 37.577 66.2372 37.8232 66.2372C37.9653 66.2372 38.1056 66.2609 38.2441 66.3082C38.3825 66.3556 38.5086 66.4325 38.6222 66.5391C38.7359 66.6444 38.8264 66.7841 38.8939 66.9581C38.9614 67.1321 38.9951 67.3464 38.9951 67.6009V67.7784H36.8928V67.4162H38.569C38.569 67.2623 38.5382 67.125 38.4767 67.0043C38.4163 66.8835 38.3299 66.7882 38.2174 66.7184C38.1061 66.6486 37.9748 66.6136 37.8232 66.6136C37.6563 66.6136 37.5119 66.6551 37.39 66.7379C37.2693 66.8196 37.1763 66.9261 37.1112 67.0575C37.0461 67.1889 37.0136 67.3298 37.0136 67.4801V67.7216C37.0136 67.9276 37.0491 68.1022 37.1201 68.2454C37.1923 68.3874 37.2923 68.4957 37.4202 68.5703C37.548 68.6437 37.6966 68.6804 37.8659 68.6804C37.9759 68.6804 38.0754 68.665 38.1642 68.6342C38.2541 68.6023 38.3316 68.5549 38.3968 68.4922C38.4619 68.4283 38.5122 68.349 38.5477 68.2543L38.9525 68.3679C38.9099 68.5052 38.8383 68.6259 38.7377 68.7301C38.637 68.8331 38.5128 68.9136 38.3648 68.9716C38.2168 69.0284 38.0505 69.0568 37.8659 69.0568ZM39.6325 70.0227V66.2727H40.0374V66.706H40.0871C40.1179 66.6586 40.1605 66.5982 40.2149 66.5249C40.2706 66.4503 40.3499 66.384 40.4529 66.326C40.557 66.2668 40.6979 66.2372 40.8754 66.2372C41.1051 66.2372 41.3075 66.2946 41.4827 66.4094C41.6579 66.5243 41.7946 66.687 41.8928 66.8977C41.9911 67.1084 42.0402 67.357 42.0402 67.6435C42.0402 67.9323 41.9911 68.1826 41.8928 68.3945C41.7946 68.6052 41.6585 68.7686 41.4845 68.8846C41.3105 68.9994 41.1098 69.0568 40.8825 69.0568C40.7074 69.0568 40.5671 69.0278 40.4617 68.9698C40.3564 68.9106 40.2753 68.8437 40.2185 68.7692C40.1617 68.6934 40.1179 68.6307 40.0871 68.581H40.0516V70.0227H39.6325ZM40.0445 67.6364C40.0445 67.8423 40.0747 68.024 40.135 68.1815C40.1954 68.3377 40.2836 68.4602 40.3996 68.549C40.5156 68.6366 40.6576 68.6804 40.8257 68.6804C41.0009 68.6804 41.1471 68.6342 41.2643 68.5419C41.3827 68.4484 41.4714 68.3229 41.5306 68.1655C41.591 68.0069 41.6212 67.8305 41.6212 67.6364C41.6212 67.4446 41.5916 67.2718 41.5324 67.1179C41.4744 66.9628 41.3862 66.8403 41.2678 66.7504C41.1507 66.6592 41.0033 66.6136 40.8257 66.6136C40.6553 66.6136 40.512 66.6568 40.396 66.7433C40.28 66.8285 40.1924 66.948 40.1333 67.1019C40.0741 67.2546 40.0445 67.4328 40.0445 67.6364ZM43.8655 66.2727V66.6278H42.4521V66.2727H43.8655ZM42.8641 65.6193H43.2831V68.2188C43.2831 68.3371 43.3003 68.4259 43.3346 68.4851C43.3701 68.5431 43.4151 68.5821 43.4695 68.6023C43.5252 68.6212 43.5838 68.6307 43.6453 68.6307C43.6915 68.6307 43.7294 68.6283 43.759 68.6236C43.7886 68.6177 43.8122 68.6129 43.83 68.6094L43.9152 68.9858C43.8868 68.9964 43.8472 69.0071 43.7963 69.0178C43.7454 69.0296 43.6808 69.0355 43.6027 69.0355C43.4843 69.0355 43.3683 69.0101 43.2547 68.9592C43.1423 68.9083 43.0487 68.8307 42.9742 68.7266C42.9008 68.6224 42.8641 68.491 42.8641 68.3324V65.6193ZM45.61 69.0568C45.3472 69.0568 45.1205 68.9988 44.93 68.8828C44.7406 68.7656 44.5944 68.6023 44.4914 68.3928C44.3896 68.1821 44.3387 67.937 44.3387 67.6577C44.3387 67.3783 44.3896 67.1321 44.4914 66.919C44.5944 66.7048 44.7376 66.5379 44.9211 66.4183C45.1057 66.2976 45.3212 66.2372 45.5674 66.2372C45.7094 66.2372 45.8497 66.2609 45.9882 66.3082C46.1267 66.3556 46.2528 66.4325 46.3664 66.5391C46.48 66.6444 46.5706 66.7841 46.6381 66.9581C46.7055 67.1321 46.7393 67.3464 46.7393 67.6009V67.7784H44.637V67.4162H46.3131C46.3131 67.2623 46.2823 67.125 46.2208 67.0043C46.1604 66.8835 46.074 66.7882 45.9616 66.7184C45.8503 66.6486 45.7189 66.6136 45.5674 66.6136C45.4005 66.6136 45.2561 66.6551 45.1341 66.7379C45.0134 66.8196 44.9205 66.9261 44.8554 67.0575C44.7903 67.1889 44.7577 67.3298 44.7577 67.4801V67.7216C44.7577 67.9276 44.7932 68.1022 44.8643 68.2454C44.9365 68.3874 45.0365 68.4957 45.1643 68.5703C45.2922 68.6437 45.4407 68.6804 45.61 68.6804C45.7201 68.6804 45.8195 68.665 45.9083 68.6342C45.9983 68.6023 46.0758 68.5549 46.1409 68.4922C46.206 68.4283 46.2563 68.349 46.2918 68.2543L46.6966 68.3679C46.654 68.5052 46.5824 68.6259 46.4818 68.7301C46.3812 68.8331 46.2569 68.9136 46.1089 68.9716C45.961 69.0284 45.7947 69.0568 45.61 69.0568ZM49.0954 67.8849V66.2727H49.5145V69H49.0954V68.5384H49.067C49.0031 68.6768 48.9037 68.7946 48.7687 68.8917C48.6338 68.9876 48.4633 69.0355 48.2574 69.0355C48.0869 69.0355 47.9354 68.9982 47.8028 68.9237C47.6702 68.8479 47.5661 68.7343 47.4903 68.5827C47.4146 68.43 47.3767 68.2377 47.3767 68.0057V66.2727H47.7957V67.9773C47.7957 68.1761 47.8514 68.3348 47.9626 68.4531C48.0751 68.5715 48.2183 68.6307 48.3923 68.6307C48.4965 68.6307 48.6024 68.604 48.7101 68.5508C48.819 68.4975 48.9102 68.4158 48.9836 68.3058C49.0581 68.1957 49.0954 68.0554 49.0954 67.8849ZM50.282 69V66.2727H50.6868V66.6847H50.7152C50.7649 66.5497 50.8549 66.4402 50.9851 66.3562C51.1153 66.2721 51.2621 66.2301 51.4254 66.2301C51.4562 66.2301 51.4947 66.2307 51.5408 66.2319C51.587 66.2331 51.6219 66.2348 51.6456 66.2372V66.6634C51.6314 66.6598 51.5988 66.6545 51.5479 66.6474C51.4982 66.6391 51.4455 66.6349 51.3899 66.6349C51.2573 66.6349 51.139 66.6628 51.0348 66.7184C50.9318 66.7728 50.8501 66.8486 50.7898 66.9457C50.7306 67.0415 50.701 67.151 50.701 67.2741V69H50.282ZM53.2569 65.1932L52.085 69.5469H51.7015L52.8734 65.1932H53.2569ZM54.7835 69.0568C54.5562 69.0568 54.3556 68.9994 54.1816 68.8846C54.0075 68.7686 53.8714 68.6052 53.7732 68.3945C53.6749 68.1826 53.6258 67.9323 53.6258 67.6435C53.6258 67.357 53.6749 67.1084 53.7732 66.8977C53.8714 66.687 54.0081 66.5243 54.1833 66.4094C54.3585 66.2946 54.5609 66.2372 54.7906 66.2372C54.9681 66.2372 55.1084 66.2668 55.2114 66.326C55.3155 66.384 55.3949 66.4503 55.4493 66.5249C55.5049 66.5982 55.5481 66.6586 55.5789 66.706H55.6144V65.3636H56.0335V69H55.6286V68.581H55.5789C55.5481 68.6307 55.5044 68.6934 55.4475 68.7692C55.3907 68.8437 55.3096 68.9106 55.2043 68.9698C55.0989 69.0278 54.9587 69.0568 54.7835 69.0568ZM54.8403 68.6804C55.0084 68.6804 55.1504 68.6366 55.2664 68.549C55.3824 68.4602 55.4706 68.3377 55.531 68.1815C55.5914 68.024 55.6215 67.8423 55.6215 67.6364C55.6215 67.4328 55.5919 67.2546 55.5328 67.1019C55.4736 66.948 55.386 66.8285 55.27 66.7433C55.154 66.6568 55.0107 66.6136 54.8403 66.6136C54.6627 66.6136 54.5148 66.6592 54.3964 66.7504C54.2792 66.8403 54.191 66.9628 54.1318 67.1179C54.0738 67.2718 54.0448 67.4446 54.0448 67.6364C54.0448 67.8305 54.0744 68.0069 54.1336 68.1655C54.194 68.3229 54.2828 68.4484 54.3999 68.5419C54.5183 68.6342 54.6651 68.6804 54.8403 68.6804ZM58.0026 69.0568C57.7398 69.0568 57.5131 68.9988 57.3225 68.8828C57.1331 68.7656 56.9869 68.6023 56.884 68.3928C56.7822 68.1821 56.7313 67.937 56.7313 67.6577C56.7313 67.3783 56.7822 67.1321 56.884 66.919C56.9869 66.7048 57.1302 66.5379 57.3137 66.4183C57.4983 66.2976 57.7137 66.2372 57.96 66.2372C58.102 66.2372 58.2423 66.2609 58.3808 66.3082C58.5193 66.3556 58.6453 66.4325 58.759 66.5391C58.8726 66.6444 58.9632 66.7841 59.0306 66.9581C59.0981 67.1321 59.1318 67.3464 59.1318 67.6009V67.7784H57.0296V67.4162H58.7057C58.7057 67.2623 58.6749 67.125 58.6134 67.0043C58.553 66.8835 58.4666 66.7882 58.3541 66.7184C58.2429 66.6486 58.1115 66.6136 57.96 66.6136C57.7931 66.6136 57.6486 66.6551 57.5267 66.7379C57.406 66.8196 57.3131 66.9261 57.248 67.0575C57.1829 67.1889 57.1503 67.3298 57.1503 67.4801V67.7216C57.1503 67.9276 57.1858 68.1022 57.2568 68.2454C57.329 68.3874 57.4291 68.4957 57.5569 68.5703C57.6847 68.6437 57.8333 68.6804 58.0026 68.6804C58.1127 68.6804 58.2121 68.665 58.3009 68.6342C58.3908 68.6023 58.4684 68.5549 58.5335 68.4922C58.5986 68.4283 58.6489 68.349 58.6844 68.2543L59.0892 68.3679C59.0466 68.5052 58.975 68.6259 58.8744 68.7301C58.7738 68.8331 58.6495 68.9136 58.5015 68.9716C58.3535 69.0284 58.1872 69.0568 58.0026 69.0568ZM57.7469 65.9034L58.1801 65.0795H58.6702L58.1162 65.9034H57.7469ZM61.9164 66.2727L60.9078 69H60.4817L59.4732 66.2727H59.9277L60.6806 68.446H60.709L61.4618 66.2727H61.9164ZM63.5153 69.0568C63.2525 69.0568 63.0258 68.9988 62.8352 68.8828C62.6458 68.7656 62.4996 68.6023 62.3967 68.3928C62.2949 68.1821 62.244 67.937 62.244 67.6577C62.244 67.3783 62.2949 67.1321 62.3967 66.919C62.4996 66.7048 62.6429 66.5379 62.8263 66.4183C63.011 66.2976 63.2264 66.2372 63.4727 66.2372C63.6147 66.2372 63.755 66.2609 63.8935 66.3082C64.032 66.3556 64.158 66.4325 64.2717 66.5391C64.3853 66.6444 64.4759 66.7841 64.5433 66.9581C64.6108 67.1321 64.6445 67.3464 64.6445 67.6009V67.7784H62.5423V67.4162H64.2184C64.2184 67.2623 64.1876 67.125 64.1261 67.0043C64.0657 66.8835 63.9793 66.7882 63.8668 66.7184C63.7556 66.6486 63.6242 66.6136 63.4727 66.6136C63.3058 66.6136 63.1613 66.6551 63.0394 66.7379C62.9187 66.8196 62.8258 66.9261 62.7607 67.0575C62.6955 67.1889 62.663 67.3298 62.663 67.4801V67.7216C62.663 67.9276 62.6985 68.1022 62.7695 68.2454C62.8417 68.3874 62.9418 68.4957 63.0696 68.5703C63.1974 68.6437 63.346 68.6804 63.5153 68.6804C63.6254 68.6804 63.7248 68.665 63.8136 68.6342C63.9035 68.6023 63.9811 68.5549 64.0462 68.4922C64.1113 68.4283 64.1616 68.349 64.1971 68.2543L64.6019 68.3679C64.5593 68.5052 64.4877 68.6259 64.3871 68.7301C64.2865 68.8331 64.1622 68.9136 64.0142 68.9716C63.8662 69.0284 63.6999 69.0568 63.5153 69.0568ZM65.701 65.3636V69H65.282V65.3636H65.701ZM67.5764 69.0568C67.3302 69.0568 67.1142 68.9982 66.9284 68.881C66.7437 68.7638 66.5993 68.5999 66.4951 68.3892C66.3921 68.1785 66.3406 67.9323 66.3406 67.6506C66.3406 67.3665 66.3921 67.1185 66.4951 66.9066C66.5993 66.6947 66.7437 66.5302 66.9284 66.413C67.1142 66.2958 67.3302 66.2372 67.5764 66.2372C67.8227 66.2372 68.0381 66.2958 68.2227 66.413C68.4086 66.5302 68.553 66.6947 68.656 66.9066C68.7602 67.1185 68.8122 67.3665 68.8122 67.6506C68.8122 67.9323 68.7602 68.1785 68.656 68.3892C68.553 68.5999 68.4086 68.7638 68.2227 68.881C68.0381 68.9982 67.8227 69.0568 67.5764 69.0568ZM67.5764 68.6804C67.7635 68.6804 67.9173 68.6325 68.0381 68.5366C68.1588 68.4407 68.2482 68.3146 68.3062 68.1584C68.3642 68.0021 68.3932 67.8329 68.3932 67.6506C68.3932 67.4683 68.3642 67.2984 68.3062 67.141C68.2482 66.9835 68.1588 66.8563 68.0381 66.7592C67.9173 66.6622 67.7635 66.6136 67.5764 66.6136C67.3894 66.6136 67.2355 66.6622 67.1148 66.7592C66.9941 66.8563 66.9047 66.9835 66.8467 67.141C66.7887 67.2984 66.7597 67.4683 66.7597 67.6506C66.7597 67.8329 66.7887 68.0021 66.8467 68.1584C66.9047 68.3146 66.9941 68.4407 67.1148 68.5366C67.2355 68.6325 67.3894 68.6804 67.5764 68.6804ZM69.4519 70.0227V66.2727H69.8567V66.706H69.9064C69.9372 66.6586 69.9798 66.5982 70.0343 66.5249C70.0899 66.4503 70.1692 66.384 70.2722 66.326C70.3764 66.2668 70.5172 66.2372 70.6948 66.2372C70.9244 66.2372 71.1268 66.2946 71.302 66.4094C71.4772 66.5243 71.6139 66.687 71.7122 66.8977C71.8104 67.1084 71.8596 67.357 71.8596 67.6435C71.8596 67.9323 71.8104 68.1826 71.7122 68.3945C71.6139 68.6052 71.4778 68.7686 71.3038 68.8846C71.1298 68.9994 70.9292 69.0568 70.7019 69.0568C70.5267 69.0568 70.3864 69.0278 70.2811 68.9698C70.1757 68.9106 70.0946 68.8437 70.0378 68.7692C69.981 68.6934 69.9372 68.6307 69.9064 68.581H69.8709V70.0227H69.4519ZM69.8638 67.6364C69.8638 67.8423 69.894 68.024 69.9544 68.1815C70.0147 68.3377 70.1029 68.4602 70.2189 68.549C70.3349 68.6366 70.477 68.6804 70.6451 68.6804C70.8203 68.6804 70.9664 68.6342 71.0836 68.5419C71.202 68.4484 71.2908 68.3229 71.35 68.1655C71.4103 68.0069 71.4405 67.8305 71.4405 67.6364C71.4405 67.4446 71.4109 67.2718 71.3517 67.1179C71.2937 66.9628 71.2056 66.8403 71.0872 66.7504C70.97 66.6592 70.8226 66.6136 70.6451 66.6136C70.4746 66.6136 70.3314 66.6568 70.2154 66.7433C70.0994 66.8285 70.0118 66.948 69.9526 67.1019C69.8934 67.2546 69.8638 67.4328 69.8638 67.6364ZM72.4988 70.0227V66.2727H72.9036V66.706H72.9533C72.9841 66.6586 73.0267 66.5982 73.0811 66.5249C73.1368 66.4503 73.2161 66.384 73.3191 66.326C73.4232 66.2668 73.5641 66.2372 73.7417 66.2372C73.9713 66.2372 74.1737 66.2946 74.3489 66.4094C74.5241 66.5243 74.6608 66.687 74.7591 66.8977C74.8573 67.1084 74.9064 67.357 74.9064 67.6435C74.9064 67.9323 74.8573 68.1826 74.7591 68.3945C74.6608 68.6052 74.5247 68.7686 74.3507 68.8846C74.1767 68.9994 73.976 69.0568 73.7488 69.0568C73.5736 69.0568 73.4333 69.0278 73.3279 68.9698C73.2226 68.9106 73.1415 68.8437 73.0847 68.7692C73.0279 68.6934 72.9841 68.6307 72.9533 68.581H72.9178V70.0227H72.4988ZM72.9107 67.6364C72.9107 67.8423 72.9409 68.024 73.0012 68.1815C73.0616 68.3377 73.1498 68.4602 73.2658 68.549C73.3818 68.6366 73.5239 68.6804 73.6919 68.6804C73.8671 68.6804 74.0133 68.6342 74.1305 68.5419C74.2489 68.4484 74.3377 68.3229 74.3968 68.1655C74.4572 68.0069 74.4874 67.8305 74.4874 67.6364C74.4874 67.4446 74.4578 67.2718 74.3986 67.1179C74.3406 66.9628 74.2524 66.8403 74.1341 66.7504C74.0169 66.6592 73.8695 66.6136 73.6919 66.6136C73.5215 66.6136 73.3783 66.6568 73.2623 66.7433C73.1462 66.8285 73.0587 66.948 72.9995 67.1019C72.9403 67.2546 72.9107 67.4328 72.9107 67.6364ZM76.6891 69.0568C76.4263 69.0568 76.1996 68.9988 76.0091 68.8828C75.8197 68.7656 75.6735 68.6023 75.5705 68.3928C75.4687 68.1821 75.4178 67.937 75.4178 67.6577C75.4178 67.3783 75.4687 67.1321 75.5705 66.919C75.6735 66.7048 75.8167 66.5379 76.0002 66.4183C76.1848 66.2976 76.4003 66.2372 76.6465 66.2372C76.7885 66.2372 76.9288 66.2609 77.0673 66.3082C77.2058 66.3556 77.3319 66.4325 77.4455 66.5391C77.5591 66.6444 77.6497 66.7841 77.7172 66.9581C77.7846 67.1321 77.8184 67.3464 77.8184 67.6009V67.7784H75.7161V67.4162H77.3922C77.3922 67.2623 77.3614 67.125 77.2999 67.0043C77.2395 66.8835 77.1531 66.7882 77.0407 66.7184C76.9294 66.6486 76.798 66.6136 76.6465 66.6136C76.4796 66.6136 76.3352 66.6551 76.2132 66.7379C76.0925 66.8196 75.9996 66.9261 75.9345 67.0575C75.8694 67.1889 75.8368 67.3298 75.8368 67.4801V67.7216C75.8368 67.9276 75.8723 68.1022 75.9434 68.2454C76.0156 68.3874 76.1156 68.4957 76.2434 68.5703C76.3713 68.6437 76.5198 68.6804 76.6891 68.6804C76.7992 68.6804 76.8986 68.665 76.9874 68.6342C77.0774 68.6023 77.1549 68.5549 77.22 68.4922C77.2851 68.4283 77.3354 68.349 77.3709 68.2543L77.7757 68.3679C77.7331 68.5052 77.6615 68.6259 77.5609 68.7301C77.4603 68.8331 77.336 68.9136 77.188 68.9716C77.0401 69.0284 76.8738 69.0568 76.6891 69.0568ZM80.1745 67.8849V66.2727H80.5936V69H80.1745V68.5384H80.1461C80.0822 68.6768 79.9828 68.7946 79.8478 68.8917C79.7129 68.9876 79.5424 69.0355 79.3365 69.0355C79.166 69.0355 79.0145 68.9982 78.8819 68.9237C78.7493 68.8479 78.6452 68.7343 78.5694 68.5827C78.4937 68.43 78.4558 68.2377 78.4558 68.0057V66.2727H78.8748V67.9773C78.8748 68.1761 78.9305 68.3348 79.0417 68.4531C79.1542 68.5715 79.2974 68.6307 79.4714 68.6307C79.5756 68.6307 79.6815 68.604 79.7892 68.5508C79.8981 68.4975 79.9893 68.4158 80.0627 68.3058C80.1373 68.1957 80.1745 68.0554 80.1745 67.8849ZM81.3611 69V66.2727H81.7659V66.6847H81.7943C81.844 66.5497 81.934 66.4402 82.0642 66.3562C82.1944 66.2721 82.3412 66.2301 82.5045 66.2301C82.5353 66.2301 82.5738 66.2307 82.6199 66.2319C82.6661 66.2331 82.701 66.2348 82.7247 66.2372V66.6634C82.7105 66.6598 82.6779 66.6545 82.627 66.6474C82.5773 66.6391 82.5247 66.6349 82.469 66.6349C82.3364 66.6349 82.2181 66.6628 82.1139 66.7184C82.0109 66.7728 81.9292 66.8486 81.8689 66.9457C81.8097 67.0415 81.7801 67.151 81.7801 67.2741V69H81.3611ZM25.4134 75.0568C25.1861 75.0568 24.9854 74.9994 24.8114 74.8846C24.6374 74.7686 24.5013 74.6052 24.4031 74.3945C24.3048 74.1826 24.2557 73.9323 24.2557 73.6435C24.2557 73.357 24.3048 73.1084 24.4031 72.8977C24.5013 72.687 24.638 72.5243 24.8132 72.4094C24.9884 72.2946 25.1908 72.2372 25.4205 72.2372C25.598 72.2372 25.7383 72.2668 25.8413 72.326C25.9454 72.384 26.0247 72.4503 26.0792 72.5249C26.1348 72.5982 26.178 72.6586 26.2088 72.706H26.2443V71.3636H26.6634V75H26.2585V74.581H26.2088C26.178 74.6307 26.1342 74.6934 26.0774 74.7692C26.0206 74.8437 25.9395 74.9106 25.8342 74.9698C25.7288 75.0278 25.5885 75.0568 25.4134 75.0568ZM25.4702 74.6804C25.6383 74.6804 25.7803 74.6366 25.8963 74.549C26.0123 74.4602 26.1005 74.3377 26.1609 74.1815C26.2212 74.024 26.2514 73.8423 26.2514 73.6364C26.2514 73.4328 26.2218 73.2546 26.1626 73.1019C26.1035 72.948 26.0159 72.8285 25.8999 72.7433C25.7839 72.6568 25.6406 72.6136 25.4702 72.6136C25.2926 72.6136 25.1446 72.6592 25.0263 72.7504C24.9091 72.8403 24.8209 72.9628 24.7617 73.1179C24.7037 73.2718 24.6747 73.4446 24.6747 73.6364C24.6747 73.8305 24.7043 74.0069 24.7635 74.1655C24.8239 74.3229 24.9126 74.4484 25.0298 74.5419C25.1482 74.6342 25.295 74.6804 25.4702 74.6804ZM27.8583 71.3636V71.6832C27.8583 71.7803 27.8406 71.8839 27.805 71.994C27.7707 72.1029 27.7198 72.2088 27.6523 72.3118C27.5861 72.4136 27.5056 72.5024 27.4109 72.5781L27.1836 72.3935C27.2582 72.2869 27.3227 72.1763 27.3771 72.0614C27.4328 71.9454 27.4606 71.8217 27.4606 71.6903V71.3636H27.8583ZM28.9312 75.0639C28.7584 75.0639 28.6015 75.0314 28.4607 74.9663C28.3198 74.9 28.2079 74.8047 28.1251 74.6804C28.0422 74.5549 28.0008 74.4034 28.0008 74.2259C28.0008 74.0696 28.0316 73.9429 28.0931 73.8459C28.1547 73.7476 28.2369 73.6707 28.3399 73.6151C28.4429 73.5594 28.5566 73.518 28.6808 73.4908C28.8063 73.4624 28.9324 73.4399 29.059 73.4233C29.2248 73.402 29.3591 73.386 29.4621 73.3754C29.5663 73.3635 29.642 73.344 29.6894 73.3168C29.7379 73.2895 29.7622 73.2422 29.7622 73.1747V73.1605C29.7622 72.9853 29.7142 72.8492 29.6183 72.7521C29.5236 72.6551 29.3798 72.6065 29.1869 72.6065C28.9868 72.6065 28.83 72.6503 28.7164 72.7379C28.6027 72.8255 28.5228 72.919 28.4767 73.0185L28.0789 72.8764C28.1499 72.7107 28.2446 72.5817 28.363 72.4893C28.4826 72.3958 28.6128 72.3307 28.7536 72.294C28.8957 72.2562 29.0354 72.2372 29.1727 72.2372C29.2603 72.2372 29.3609 72.2479 29.4745 72.2692C29.5893 72.2893 29.7 72.3313 29.8066 72.3952C29.9143 72.4592 30.0036 72.5556 30.0747 72.6847C30.1457 72.8137 30.1812 72.9865 30.1812 73.2031V75H29.7622V74.6307H29.7409C29.7124 74.6899 29.6651 74.7532 29.5988 74.8207C29.5325 74.8881 29.4443 74.9455 29.3343 74.9929C29.2242 75.0402 29.0898 75.0639 28.9312 75.0639ZM28.9951 74.6875C29.1608 74.6875 29.3005 74.6549 29.4142 74.5898C29.529 74.5247 29.6154 74.4407 29.6734 74.3377C29.7326 74.2347 29.7622 74.1264 29.7622 74.0128V73.6293C29.7444 73.6506 29.7053 73.6701 29.645 73.6879C29.5858 73.7044 29.5171 73.7192 29.439 73.7322C29.3621 73.7441 29.2869 73.7547 29.2135 73.7642C29.1413 73.7725 29.0827 73.7796 29.0377 73.7855C28.9288 73.7997 28.827 73.8228 28.7323 73.8548C28.6388 73.8855 28.5631 73.9323 28.5051 73.995C28.4482 74.0566 28.4198 74.1406 28.4198 74.2472C28.4198 74.3928 28.4737 74.5028 28.5814 74.5774C28.6903 74.6508 28.8282 74.6875 28.9951 74.6875ZM30.946 76.0227V72.2727H31.3509V72.706H31.4006C31.4313 72.6586 31.474 72.5982 31.5284 72.5249C31.584 72.4503 31.6634 72.384 31.7663 72.326C31.8705 72.2668 32.0114 72.2372 32.1889 72.2372C32.4186 72.2372 32.621 72.2946 32.7962 72.4094C32.9714 72.5243 33.1081 72.687 33.2063 72.8977C33.3046 73.1084 33.3537 73.357 33.3537 73.6435C33.3537 73.9323 33.3046 74.1826 33.2063 74.3945C33.1081 74.6052 32.9719 74.7686 32.7979 74.8846C32.6239 74.9994 32.4233 75.0568 32.196 75.0568C32.0208 75.0568 31.8806 75.0278 31.7752 74.9698C31.6699 74.9106 31.5888 74.8437 31.532 74.7692C31.4751 74.6934 31.4313 74.6307 31.4006 74.581H31.3651V76.0227H30.946ZM31.358 73.6364C31.358 73.8423 31.3881 74.024 31.4485 74.1815C31.5089 74.3377 31.5971 74.4602 31.7131 74.549C31.8291 74.6366 31.9711 74.6804 32.1392 74.6804C32.3144 74.6804 32.4606 74.6342 32.5778 74.5419C32.6961 74.4484 32.7849 74.3229 32.8441 74.1655C32.9045 74.0069 32.9347 73.8305 32.9347 73.6364C32.9347 73.4446 32.9051 73.2718 32.8459 73.1179C32.7879 72.9628 32.6997 72.8403 32.5813 72.7504C32.4641 72.6592 32.3168 72.6136 32.1392 72.6136C31.9688 72.6136 31.8255 72.6568 31.7095 72.7433C31.5935 72.8285 31.5059 72.948 31.4467 73.1019C31.3875 73.2546 31.358 73.4328 31.358 73.6364ZM33.9929 76.0227V72.2727H34.3977V72.706H34.4474C34.4782 72.6586 34.5208 72.5982 34.5753 72.5249C34.6309 72.4503 34.7102 72.384 34.8132 72.326C34.9174 72.2668 35.0582 72.2372 35.2358 72.2372C35.4654 72.2372 35.6679 72.2946 35.843 72.4094C36.0182 72.5243 36.1549 72.687 36.2532 72.8977C36.3514 73.1084 36.4006 73.357 36.4006 73.6435C36.4006 73.9323 36.3514 74.1826 36.2532 74.3945C36.1549 74.6052 36.0188 74.7686 35.8448 74.8846C35.6708 74.9994 35.4702 75.0568 35.2429 75.0568C35.0677 75.0568 34.9274 75.0278 34.8221 74.9698C34.7167 74.9106 34.6357 74.8437 34.5788 74.7692C34.522 74.6934 34.4782 74.6307 34.4474 74.581H34.4119V76.0227H33.9929ZM34.4048 73.6364C34.4048 73.8423 34.435 74.024 34.4954 74.1815C34.5558 74.3377 34.6439 74.4602 34.7599 74.549C34.8759 74.6366 35.018 74.6804 35.1861 74.6804C35.3613 74.6804 35.5075 74.6342 35.6246 74.5419C35.743 74.4484 35.8318 74.3229 35.891 74.1655C35.9513 74.0069 35.9815 73.8305 35.9815 73.6364C35.9815 73.4446 35.9519 73.2718 35.8928 73.1179C35.8348 72.9628 35.7466 72.8403 35.6282 72.7504C35.511 72.6592 35.3636 72.6136 35.1861 72.6136C35.0156 72.6136 34.8724 72.6568 34.7564 72.7433C34.6404 72.8285 34.5528 72.948 34.4936 73.1019C34.4344 73.2546 34.4048 73.4328 34.4048 73.6364ZM37.4588 71.3636V75H37.0398V71.3636H37.4588ZM38.2263 75V72.2727H38.6453V75H38.2263ZM38.4394 71.8182C38.3577 71.8182 38.2873 71.7904 38.2281 71.7347C38.1701 71.6791 38.1411 71.6122 38.1411 71.5341C38.1411 71.456 38.1701 71.3891 38.2281 71.3335C38.2873 71.2778 38.3577 71.25 38.4394 71.25C38.521 71.25 38.5909 71.2778 38.6489 71.3335C38.7081 71.3891 38.7377 71.456 38.7377 71.5341C38.7377 71.6122 38.7081 71.6791 38.6489 71.7347C38.5909 71.7904 38.521 71.8182 38.4394 71.8182ZM40.5208 75.0568C40.2651 75.0568 40.0449 74.9964 39.8603 74.8757C39.6756 74.755 39.5336 74.5887 39.4341 74.3768C39.3347 74.1649 39.285 73.9228 39.285 73.6506C39.285 73.3736 39.3359 73.1291 39.4377 72.9173C39.5407 72.7042 39.6839 72.5379 39.8674 72.4183C40.052 72.2976 40.2675 72.2372 40.5137 72.2372C40.7054 72.2372 40.8783 72.2727 41.0321 72.3438C41.186 72.4148 41.3121 72.5142 41.4103 72.642C41.5086 72.7699 41.5695 72.919 41.5932 73.0895H41.1742C41.1422 72.9652 41.0712 72.8551 40.9611 72.7592C40.8522 72.6622 40.7054 72.6136 40.5208 72.6136C40.3574 72.6136 40.2142 72.6562 40.0911 72.7415C39.9692 72.8255 39.8739 72.9445 39.8052 73.0984C39.7377 73.2511 39.704 73.4304 39.704 73.6364C39.704 73.8471 39.7372 74.0305 39.8034 74.1868C39.8709 74.343 39.9656 74.4644 40.0875 74.5508C40.2106 74.6372 40.3551 74.6804 40.5208 74.6804C40.6297 74.6804 40.7285 74.6615 40.8173 74.6236C40.9061 74.5857 40.9812 74.5312 41.0428 74.4602C41.1043 74.3892 41.1481 74.304 41.1742 74.2045H41.5932C41.5695 74.3655 41.5109 74.5105 41.4174 74.6396C41.3251 74.7674 41.2026 74.8692 41.0499 74.945C40.8984 75.0195 40.722 75.0568 40.5208 75.0568ZM43.0083 75.0639C42.8355 75.0639 42.6787 75.0314 42.5378 74.9663C42.397 74.9 42.2851 74.8047 42.2022 74.6804C42.1194 74.5549 42.0779 74.4034 42.0779 74.2259C42.0779 74.0696 42.1087 73.9429 42.1703 73.8459C42.2318 73.7476 42.3141 73.6707 42.4171 73.6151C42.5201 73.5594 42.6337 73.518 42.758 73.4908C42.8835 73.4624 43.0095 73.4399 43.1362 73.4233C43.3019 73.402 43.4363 73.386 43.5392 73.3754C43.6434 73.3635 43.7192 73.344 43.7665 73.3168C43.815 73.2895 43.8393 73.2422 43.8393 73.1747V73.1605C43.8393 72.9853 43.7914 72.8492 43.6955 72.7521C43.6008 72.6551 43.457 72.6065 43.264 72.6065C43.064 72.6065 42.9071 72.6503 42.7935 72.7379C42.6799 72.8255 42.6 72.919 42.5538 73.0185L42.1561 72.8764C42.2271 72.7107 42.3218 72.5817 42.4402 72.4893C42.5597 72.3958 42.6899 72.3307 42.8308 72.294C42.9728 72.2562 43.1125 72.2372 43.2498 72.2372C43.3374 72.2372 43.438 72.2479 43.5517 72.2692C43.6665 72.2893 43.7772 72.3313 43.8837 72.3952C43.9914 72.4592 44.0808 72.5556 44.1518 72.6847C44.2228 72.8137 44.2583 72.9865 44.2583 73.2031V75H43.8393V74.6307H43.818C43.7896 74.6899 43.7422 74.7532 43.676 74.8207C43.6097 74.8881 43.5215 74.9455 43.4114 74.9929C43.3013 75.0402 43.167 75.0639 43.0083 75.0639ZM43.0723 74.6875C43.238 74.6875 43.3777 74.6549 43.4913 74.5898C43.6061 74.5247 43.6925 74.4407 43.7505 74.3377C43.8097 74.2347 43.8393 74.1264 43.8393 74.0128V73.6293C43.8216 73.6506 43.7825 73.6701 43.7221 73.6879C43.6629 73.7044 43.5943 73.7192 43.5162 73.7322C43.4392 73.7441 43.3641 73.7547 43.2907 73.7642C43.2185 73.7725 43.1599 73.7796 43.1149 73.7855C43.006 73.7997 42.9042 73.8228 42.8095 73.8548C42.716 73.8855 42.6402 73.9323 42.5822 73.995C42.5254 74.0566 42.497 74.1406 42.497 74.2472C42.497 74.3928 42.5508 74.5028 42.6586 74.5774C42.7675 74.6508 42.9054 74.6875 43.0723 74.6875ZM46.2093 72.2727V72.6278H44.7959V72.2727H46.2093ZM45.2078 71.6193H45.6269V74.2188C45.6269 74.3371 45.644 74.4259 45.6784 74.4851C45.7139 74.5431 45.7588 74.5821 45.8133 74.6023C45.8689 74.6212 45.9275 74.6307 45.9891 74.6307C46.0352 74.6307 46.0731 74.6283 46.1027 74.6236C46.1323 74.6177 46.156 74.6129 46.1737 74.6094L46.259 74.9858C46.2306 74.9964 46.1909 75.0071 46.14 75.0178C46.0891 75.0296 46.0246 75.0355 45.9465 75.0355C45.8281 75.0355 45.7121 75.0101 45.5985 74.9592C45.486 74.9083 45.3925 74.8307 45.3179 74.7266C45.2445 74.6224 45.2078 74.491 45.2078 74.3324V71.6193ZM46.8396 75V72.2727H47.2586V75H46.8396ZM47.0526 71.8182C46.971 71.8182 46.9005 71.7904 46.8414 71.7347C46.7834 71.6791 46.7544 71.6122 46.7544 71.5341C46.7544 71.456 46.7834 71.3891 46.8414 71.3335C46.9005 71.2778 46.971 71.25 47.0526 71.25C47.1343 71.25 47.2042 71.2778 47.2622 71.3335C47.3213 71.3891 47.3509 71.456 47.3509 71.5341C47.3509 71.6122 47.3213 71.6791 47.2622 71.7347C47.2042 71.7904 47.1343 71.8182 47.0526 71.8182ZM49.1341 75.0568C48.8878 75.0568 48.6718 74.9982 48.486 74.881C48.3013 74.7638 48.1569 74.5999 48.0527 74.3892C47.9498 74.1785 47.8983 73.9323 47.8983 73.6506C47.8983 73.3665 47.9498 73.1185 48.0527 72.9066C48.1569 72.6947 48.3013 72.5302 48.486 72.413C48.6718 72.2958 48.8878 72.2372 49.1341 72.2372C49.3803 72.2372 49.5957 72.2958 49.7804 72.413C49.9662 72.5302 50.1106 72.6947 50.2136 72.9066C50.3178 73.1185 50.3699 73.3665 50.3699 73.6506C50.3699 73.9323 50.3178 74.1785 50.2136 74.3892C50.1106 74.5999 49.9662 74.7638 49.7804 74.881C49.5957 74.9982 49.3803 75.0568 49.1341 75.0568ZM49.1341 74.6804C49.3211 74.6804 49.475 74.6325 49.5957 74.5366C49.7164 74.4407 49.8058 74.3146 49.8638 74.1584C49.9218 74.0021 49.9508 73.8329 49.9508 73.6506C49.9508 73.4683 49.9218 73.2984 49.8638 73.141C49.8058 72.9835 49.7164 72.8563 49.5957 72.7592C49.475 72.6622 49.3211 72.6136 49.1341 72.6136C48.947 72.6136 48.7931 72.6622 48.6724 72.7592C48.5517 72.8563 48.4623 72.9835 48.4043 73.141C48.3463 73.2984 48.3173 73.4683 48.3173 73.6506C48.3173 73.8329 48.3463 74.0021 48.4043 74.1584C48.4623 74.3146 48.5517 74.4407 48.6724 74.5366C48.7931 74.6325 48.947 74.6804 49.1341 74.6804ZM51.4285 73.3594V75H51.0095V72.2727H51.4143V72.6989H51.4498C51.5138 72.5604 51.6108 72.4491 51.741 72.3651C51.8712 72.2798 52.0393 72.2372 52.2453 72.2372C52.43 72.2372 52.5915 72.2751 52.73 72.3509C52.8685 72.4254 52.9762 72.5391 53.0532 72.6918C53.1301 72.8433 53.1686 73.035 53.1686 73.267V75H52.7496V73.2955C52.7496 73.0812 52.6939 72.9143 52.5827 72.7947C52.4714 72.674 52.3187 72.6136 52.1246 72.6136C51.9908 72.6136 51.8712 72.6426 51.7659 72.7006C51.6617 72.7586 51.5795 72.8433 51.5191 72.9545C51.4587 73.0658 51.4285 73.2008 51.4285 73.3594ZM55.8661 72.8835L55.4897 72.9901C55.466 72.9273 55.4311 72.8664 55.3849 72.8072C55.34 72.7468 55.2784 72.6971 55.2003 72.658C55.1222 72.619 55.0221 72.5994 54.9002 72.5994C54.7333 72.5994 54.5942 72.6379 54.483 72.7148C54.3729 72.7906 54.3178 72.8871 54.3178 73.0043C54.3178 73.1084 54.3557 73.1907 54.4315 73.2511C54.5072 73.3114 54.6256 73.3617 54.7866 73.402L55.1914 73.5014C55.4353 73.5606 55.617 73.6512 55.7365 73.7731C55.8561 73.8938 55.9158 74.0495 55.9158 74.2401C55.9158 74.3963 55.8709 74.536 55.7809 74.6591C55.6921 74.7822 55.5678 74.8793 55.408 74.9503C55.2482 75.0213 55.0624 75.0568 54.8505 75.0568C54.5723 75.0568 54.3421 74.9964 54.1598 74.8757C53.9775 74.755 53.8621 74.5786 53.8136 74.3466L54.2113 74.2472C54.2492 74.3939 54.3208 74.504 54.4261 74.5774C54.5327 74.6508 54.6718 74.6875 54.8434 74.6875C55.0387 74.6875 55.1938 74.6461 55.3086 74.5632C55.4246 74.4792 55.4826 74.3786 55.4826 74.2614C55.4826 74.1667 55.4495 74.0874 55.3832 74.0234C55.3169 73.9583 55.2151 73.9098 55.0778 73.8778L54.6232 73.7713C54.3735 73.7121 54.19 73.6204 54.0728 73.4961C53.9568 73.3706 53.8988 73.2138 53.8988 73.0256C53.8988 72.8717 53.942 72.7356 54.0284 72.6172C54.116 72.4988 54.235 72.4059 54.3853 72.3384C54.5368 72.271 54.7085 72.2372 54.9002 72.2372C55.1701 72.2372 55.382 72.2964 55.5359 72.4148C55.6909 72.5331 55.801 72.6894 55.8661 72.8835Z" fill="black"/>
</g>
<defs>
<filter id="filter0_d_1_2" x="75.0002" y="41.9095" width="18.549" height="20.124" filterUnits="userSpaceOnUse" color-interpolation-filters="sRGB">
<feFlood flood-opacity="0" result="BackgroundImageFix"/>
<feColorMatrix in="SourceAlpha" type="matrix" values="0 0 0 0 0 0 0 0 0 0 0 0 0 0 0 0 0 0 127 0" result="hardAlpha"/>
<feOffset dy="4"/>
<feGaussianBlur stdDeviation="2"/>
<feComposite in2="hardAlpha" operator="out"/>
<feColorMatrix type="matrix" values="0 0 0 0 0 0 0 0 0 0 0 0 0 0 0 0 0 0 0.25 0"/>
<feBlend mode="normal" in2="BackgroundImageFix" result="effect1_dropShadow_1_2"/>
<feBlend mode="normal" in="SourceGraphic" in2="effect1_dropShadow_1_2" result="shape"/>
</filter>
<filter id="filter1_d_1_2" x="11" y="80" width="23" height="21" filterUnits="userSpaceOnUse" color-interpolation-filters="sRGB">
<feFlood flood-opacity="0" result="BackgroundImageFix"/>
<feColorMatrix in="SourceAlpha" type="matrix" values="0 0 0 0 0 0 0 0 0 0 0 0 0 0 0 0 0 0 127 0" result="hardAlpha"/>
<feOffset dy="4"/>
<feGaussianBlur stdDeviation="2"/>
<feComposite in2="hardAlpha" operator="out"/>
<feColorMatrix type="matrix" values="0 0 0 0 0 0 0 0 0 0 0 0 0 0 0 0 0 0 0.25 0"/>
<feBlend mode="normal" in2="BackgroundImageFix" result="effect1_dropShadow_1_2"/>
<feBlend mode="normal" in="SourceGraphic" in2="effect1_dropShadow_1_2" result="shape"/>
</filter>
<radialGradient id="paint0_radial_1_2" cx="0" cy="0" r="1" gradientUnits="userSpaceOnUse" gradientTransform="translate(86 48) rotate(89.5338) scale(7)">
<stop stop-color="#37C620"/>
<stop offset="1" stop-color="#1B6010"/>
</radialGradient>
<linearGradient id="paint1_linear_1_2" x1="86" y1="6" x2="86" y2="16" gradientUnits="userSpaceOnUse">
<stop stop-color="#FF9900"/>
<stop offset="1" stop-color="#995C00"/>
</linearGradient>
<clipPath id="clip0_1_2">
<rect width="100" height="100" fill="white"/>
</clipPath>
</defs>
</svg>
